<svg width="228" height="337" viewBox="0 0 228 337" fill="none" xmlns="http://www.w3.org/2000/svg">
<g filter="url(#filter0_dif_194_3896)">
<path d="M8 67.5H220L183.5 307.5C178.616 319.869 168.5 329 162.5 329H65.5C59.5 329 48.9234 319.676 44.5 307.5L8 67.5Z" fill="#723F23"/>
</g>
<g filter="url(#filter1_df_194_3896)">
<path d="M15 69.5H98.5C63 78 50.5961 92 53.8819 120C63.6895 203.576 74.0908 292.182 78 300C84.9354 313.871 93.3895 320.881 111.5 324.5L68.5 321.5C59.6461 318.062 53.2077 317.865 49.5 302L15 69.5Z" fill="#965A39"/>
</g>
<g filter="url(#filter2_df_194_3896)">
<path d="M143 69.5L219 68.5L201.5 183C200.674 144.251 208.5 76.5 143 69.5Z" fill="#5B331C"/>
</g>
<g filter="url(#filter3_f_194_3896)">
<path d="M1 52.5C1 50.2909 2.79086 48.5 5 48.5H6.86304C9.45781 48.5 11.8914 47.2415 13.3912 45.1241L24.4131 29.5638C26.6629 26.3877 30.3133 24.5 34.2054 24.5H52.7686C55.4158 24.5 57.8916 23.1905 59.3814 21.0023L69.4279 6.24651C71.6626 2.96426 75.3763 1 79.3471 1H147.923C152.02 1 155.834 3.09017 158.038 6.54358L167.141 20.8043C168.611 23.1066 171.153 24.5 173.884 24.5H193.188C197.139 24.5 200.837 26.4454 203.076 29.7017L213.616 45.0322C215.108 47.2031 217.574 48.5 220.208 48.5H223C225.209 48.5 227 50.2909 227 52.5V64.5C227 66.7091 225.209 68.5 223 68.5H5C2.79086 68.5 1 66.7091 1 64.5V52.5Z" fill="#723F23"/>
</g>
<g filter="url(#filter4_df_194_3896)">
<path d="M75.2305 7.26967C76.3329 5.54418 78.2391 4.5 80.2867 4.5H145.932C147.859 4.5 149.668 5.42518 150.796 6.98706L162 22.5H65.5L75.2305 7.26967Z" fill="#1F1F1F"/>
</g>
<g filter="url(#filter5_df_194_3896)">
<path d="M27.5 28.5C72 44 134.25 41.9194 218 44H15.5L27.5 28.5Z" fill="#965A39"/>
</g>
<g filter="url(#filter6_df_194_3896)">
<path d="M171.5 24.5H195.393C197.971 24.5 200.391 25.7422 201.894 27.8367L216 47.5C202.531 36.2602 189.877 29.7926 171.5 24.5Z" fill="#5B331C"/>
</g>
<path d="M99.6992 125.823C100.458 124.684 101.737 124 103.105 124H130.784C132.25 124 133.604 124.784 134.334 126.055L140.062 136.026L143.671 134.402C144.129 134.195 144.58 134.705 144.318 135.135L136.267 148.328C136.081 148.633 135.75 148.819 135.393 148.819H120.003C119.497 148.819 119.298 148.162 119.72 147.881L122.919 145.748L117.63 136.273C117.249 135.59 116.273 135.57 115.864 136.237L107.593 149.732C107.297 150.216 106.663 150.366 106.181 150.067L91.066 140.677C90.5749 140.372 90.4338 139.721 90.7545 139.24L99.6992 125.823Z" fill="white"/>
<path d="M154.988 165.434C155.648 166.633 155.666 168.082 155.035 169.297L142.273 193.858C141.597 195.158 140.277 195.999 138.813 196.06L127.324 196.546L127.101 200.497C127.073 200.999 126.413 201.163 126.152 200.733L118.157 187.506C117.972 187.201 117.96 186.821 118.124 186.505L125.22 172.848C125.454 172.399 126.128 172.525 126.183 173.029L126.601 176.851L137.447 176.527C138.229 176.504 138.697 175.647 138.293 174.976L130.132 161.415C129.839 160.928 129.998 160.297 130.487 160.007L145.787 150.924C146.285 150.629 146.927 150.804 147.206 151.31L154.988 165.434Z" fill="white"/>
<path d="M93.8272 197.116C92.2842 197.153 90.851 196.32 90.1205 194.96L75.8136 168.33C75.1878 167.165 75.1631 165.769 75.7475 164.583L81.4485 153.01L78.2269 150.712C77.8173 150.419 78.0311 149.774 78.5342 149.783L93.987 150.087C94.3437 150.094 94.671 150.286 94.8508 150.594L102.608 163.886C102.863 164.324 102.396 164.826 101.941 164.604L98.4864 162.916L91.8609 175.083C91.4939 175.757 91.9719 176.58 92.7393 176.596L110.197 176.945C110.733 176.956 111.171 177.379 111.198 177.915L112.118 195.615C112.148 196.19 111.697 196.677 111.121 196.691L93.8272 197.116Z" fill="white"/>
<path d="M67.7734 230.301H62.8398V226.996C62.8398 226.035 62.7852 225.438 62.6758 225.203C62.5742 224.961 62.3438 224.84 61.9844 224.84C61.5781 224.84 61.3203 224.984 61.2109 225.273C61.1016 225.562 61.0469 226.188 61.0469 227.148V235.961C61.0469 236.883 61.1016 237.484 61.2109 237.766C61.3203 238.047 61.5664 238.188 61.9492 238.188C62.3164 238.188 62.5547 238.047 62.6641 237.766C62.7812 237.484 62.8398 236.824 62.8398 235.785V233.406H67.7734V234.145C67.7734 236.105 67.6328 237.496 67.3516 238.316C67.0781 239.137 66.4648 239.855 65.5117 240.473C64.5664 241.09 63.3984 241.398 62.0078 241.398C60.5625 241.398 59.3711 241.137 58.4336 240.613C57.4961 240.09 56.875 239.367 56.5703 238.445C56.2656 237.516 56.1133 236.121 56.1133 234.262V228.719C56.1133 227.352 56.1602 226.328 56.2539 225.648C56.3477 224.961 56.625 224.301 57.0859 223.668C57.5547 223.035 58.1992 222.539 59.0195 222.18C59.8477 221.812 60.7969 221.629 61.8672 221.629C63.3203 221.629 64.5195 221.91 65.4648 222.473C66.4102 223.035 67.0312 223.738 67.3281 224.582C67.625 225.418 67.7734 226.723 67.7734 228.496V230.301ZM78.0625 222.027L80.8867 241H75.8359L75.5898 237.59H73.8203L73.5273 241H68.418L70.9258 222.027H78.0625ZM75.4492 234.227C75.1992 232.078 74.9492 229.426 74.6992 226.27C74.1992 229.895 73.8867 232.547 73.7617 234.227H75.4492ZM81.7305 222.027H85.2227C87.5508 222.027 89.125 222.117 89.9453 222.297C90.7734 222.477 91.4453 222.938 91.9609 223.68C92.4844 224.414 92.7461 225.59 92.7461 227.207C92.7461 228.684 92.5625 229.676 92.1953 230.184C91.8281 230.691 91.1055 230.996 90.0273 231.098C91.0039 231.34 91.6602 231.664 91.9961 232.07C92.332 232.477 92.5391 232.852 92.6172 233.195C92.7031 233.531 92.7461 234.465 92.7461 235.996V241H88.1641V234.695C88.1641 233.68 88.082 233.051 87.918 232.809C87.7617 232.566 87.3438 232.445 86.6641 232.445V241H81.7305V222.027ZM86.6641 225.273V229.492C87.2188 229.492 87.6055 229.418 87.8242 229.27C88.0508 229.113 88.1641 228.617 88.1641 227.781V226.738C88.1641 226.137 88.0547 225.742 87.8359 225.555C87.625 225.367 87.2344 225.273 86.6641 225.273ZM94.668 222.027H98.3594C100.742 222.027 102.352 222.137 103.188 222.355C104.031 222.574 104.672 222.934 105.109 223.434C105.547 223.934 105.82 224.492 105.93 225.109C106.039 225.719 106.094 226.922 106.094 228.719V235.363C106.094 237.066 106.012 238.207 105.848 238.785C105.691 239.355 105.414 239.805 105.016 240.133C104.617 240.453 104.125 240.68 103.539 240.812C102.953 240.938 102.07 241 100.891 241H94.668V222.027ZM99.6016 225.273V237.754C100.312 237.754 100.75 237.613 100.914 237.332C101.078 237.043 101.16 236.266 101.16 235V227.629C101.16 226.77 101.133 226.219 101.078 225.977C101.023 225.734 100.898 225.559 100.703 225.449C100.508 225.332 100.141 225.273 99.6016 225.273ZM107.934 222.027H112.855C114.41 222.027 115.586 222.148 116.383 222.391C117.188 222.633 117.836 223.125 118.328 223.867C118.82 224.602 119.066 225.789 119.066 227.43C119.066 228.539 118.891 229.312 118.539 229.75C118.195 230.188 117.512 230.523 116.488 230.758C117.629 231.016 118.402 231.445 118.809 232.047C119.215 232.641 119.418 233.555 119.418 234.789V236.547C119.418 237.828 119.27 238.777 118.973 239.395C118.684 240.012 118.219 240.434 117.578 240.66C116.938 240.887 115.625 241 113.641 241H107.934V222.027ZM112.867 225.273V229.492C113.078 229.484 113.242 229.48 113.359 229.48C113.844 229.48 114.152 229.363 114.285 229.129C114.418 228.887 114.484 228.203 114.484 227.078C114.484 226.484 114.43 226.07 114.32 225.836C114.211 225.594 114.066 225.441 113.887 225.379C113.715 225.316 113.375 225.281 112.867 225.273ZM112.867 232.445V237.754C113.562 237.73 114.004 237.621 114.191 237.426C114.387 237.23 114.484 236.75 114.484 235.984V234.215C114.484 233.402 114.398 232.91 114.227 232.738C114.055 232.566 113.602 232.469 112.867 232.445ZM132.473 233.137C132.473 235.043 132.426 236.395 132.332 237.191C132.246 237.98 131.965 238.703 131.488 239.359C131.02 240.016 130.383 240.52 129.578 240.871C128.773 241.223 127.836 241.398 126.766 241.398C125.75 241.398 124.836 241.234 124.023 240.906C123.219 240.57 122.57 240.07 122.078 239.406C121.586 238.742 121.293 238.02 121.199 237.238C121.105 236.457 121.059 235.09 121.059 233.137V229.891C121.059 227.984 121.102 226.637 121.188 225.848C121.281 225.051 121.562 224.324 122.031 223.668C122.508 223.012 123.148 222.508 123.953 222.156C124.758 221.805 125.695 221.629 126.766 221.629C127.781 221.629 128.691 221.797 129.496 222.133C130.309 222.461 130.961 222.957 131.453 223.621C131.945 224.285 132.238 225.008 132.332 225.789C132.426 226.57 132.473 227.938 132.473 229.891V233.137ZM127.539 226.902C127.539 226.02 127.488 225.457 127.387 225.215C127.293 224.965 127.094 224.84 126.789 224.84C126.531 224.84 126.332 224.941 126.191 225.145C126.059 225.34 125.992 225.926 125.992 226.902V235.762C125.992 236.863 126.035 237.543 126.121 237.801C126.215 238.059 126.426 238.188 126.754 238.188C127.09 238.188 127.305 238.039 127.398 237.742C127.492 237.445 127.539 236.738 127.539 235.621V226.902ZM142.844 222.027L145.668 241H140.617L140.371 237.59H138.602L138.309 241H133.199L135.707 222.027H142.844ZM140.23 234.227C139.98 232.078 139.73 229.426 139.48 226.27C138.98 229.895 138.668 232.547 138.543 234.227H140.23ZM146.512 222.027H150.004C152.332 222.027 153.906 222.117 154.727 222.297C155.555 222.477 156.227 222.938 156.742 223.68C157.266 224.414 157.527 225.59 157.527 227.207C157.527 228.684 157.344 229.676 156.977 230.184C156.609 230.691 155.887 230.996 154.809 231.098C155.785 231.34 156.441 231.664 156.777 232.07C157.113 232.477 157.32 232.852 157.398 233.195C157.484 233.531 157.527 234.465 157.527 235.996V241H152.945V234.695C152.945 233.68 152.863 233.051 152.699 232.809C152.543 232.566 152.125 232.445 151.445 232.445V241H146.512V222.027ZM151.445 225.273V229.492C152 229.492 152.387 229.418 152.605 229.27C152.832 229.113 152.945 228.617 152.945 227.781V226.738C152.945 226.137 152.836 225.742 152.617 225.555C152.406 225.367 152.016 225.273 151.445 225.273ZM159.449 222.027H163.141C165.523 222.027 167.133 222.137 167.969 222.355C168.812 222.574 169.453 222.934 169.891 223.434C170.328 223.934 170.602 224.492 170.711 225.109C170.82 225.719 170.875 226.922 170.875 228.719V235.363C170.875 237.066 170.793 238.207 170.629 238.785C170.473 239.355 170.195 239.805 169.797 240.133C169.398 240.453 168.906 240.68 168.32 240.812C167.734 240.938 166.852 241 165.672 241H159.449V222.027ZM164.383 225.273V237.754C165.094 237.754 165.531 237.613 165.695 237.332C165.859 237.043 165.941 236.266 165.941 235V227.629C165.941 226.77 165.914 226.219 165.859 225.977C165.805 225.734 165.68 225.559 165.484 225.449C165.289 225.332 164.922 225.273 164.383 225.273Z" fill="white"/>
<defs>
<filter id="filter0_dif_194_3896" x="4" y="66.5" width="220" height="270.5" filterUnits="userSpaceOnUse" color-interpolation-filters="sRGB">
<feFlood flood-opacity="0" result="BackgroundImageFix"/>
<feColorMatrix in="SourceAlpha" type="matrix" values="0 0 0 0 0 0 0 0 0 0 0 0 0 0 0 0 0 0 127 0" result="hardAlpha"/>
<feOffset dy="4"/>
<feGaussianBlur stdDeviation="2"/>
<feComposite in2="hardAlpha" operator="out"/>
<feColorMatrix type="matrix" values="0 0 0 0 0 0 0 0 0 0 0 0 0 0 0 0 0 0 0.25 0"/>
<feBlend mode="normal" in2="BackgroundImageFix" result="effect1_dropShadow_194_3896"/>
<feBlend mode="normal" in="SourceGraphic" in2="effect1_dropShadow_194_3896" result="shape"/>
<feColorMatrix in="SourceAlpha" type="matrix" values="0 0 0 0 0 0 0 0 0 0 0 0 0 0 0 0 0 0 127 0" result="hardAlpha"/>
<feOffset dy="8"/>
<feGaussianBlur stdDeviation="6"/>
<feComposite in2="hardAlpha" operator="arithmetic" k2="-1" k3="1"/>
<feColorMatrix type="matrix" values="0 0 0 0 0 0 0 0 0 0 0 0 0 0 0 0 0 0 0.25 0"/>
<feBlend mode="normal" in2="shape" result="effect2_innerShadow_194_3896"/>
<feGaussianBlur stdDeviation="0.5" result="effect3_foregroundBlur_194_3896"/>
</filter>
<filter id="filter1_df_194_3896" x="11" y="65.5" width="112.5" height="271" filterUnits="userSpaceOnUse" color-interpolation-filters="sRGB">
<feFlood flood-opacity="0" result="BackgroundImageFix"/>
<feColorMatrix in="SourceAlpha" type="matrix" values="0 0 0 0 0 0 0 0 0 0 0 0 0 0 0 0 0 0 127 0" result="hardAlpha"/>
<feOffset dx="4" dy="4"/>
<feGaussianBlur stdDeviation="4"/>
<feComposite in2="hardAlpha" operator="out"/>
<feColorMatrix type="matrix" values="0 0 0 0 0 0 0 0 0 0 0 0 0 0 0 0 0 0 0.15 0"/>
<feBlend mode="normal" in2="BackgroundImageFix" result="effect1_dropShadow_194_3896"/>
<feBlend mode="normal" in="SourceGraphic" in2="effect1_dropShadow_194_3896" result="shape"/>
<feGaussianBlur stdDeviation="2" result="effect2_foregroundBlur_194_3896"/>
</filter>
<filter id="filter2_df_194_3896" x="135" y="64.5" width="92" height="130.5" filterUnits="userSpaceOnUse" color-interpolation-filters="sRGB">
<feFlood flood-opacity="0" result="BackgroundImageFix"/>
<feColorMatrix in="SourceAlpha" type="matrix" values="0 0 0 0 0 0 0 0 0 0 0 0 0 0 0 0 0 0 127 0" result="hardAlpha"/>
<feOffset dy="4"/>
<feGaussianBlur stdDeviation="4"/>
<feComposite in2="hardAlpha" operator="out"/>
<feColorMatrix type="matrix" values="0 0 0 0 0 0 0 0 0 0 0 0 0 0 0 0 0 0 0.25 0"/>
<feBlend mode="normal" in2="BackgroundImageFix" result="effect1_dropShadow_194_3896"/>
<feBlend mode="normal" in="SourceGraphic" in2="effect1_dropShadow_194_3896" result="shape"/>
<feGaussianBlur stdDeviation="2" result="effect2_foregroundBlur_194_3896"/>
</filter>
<filter id="filter3_f_194_3896" x="0" y="0" width="228" height="69.5" filterUnits="userSpaceOnUse" color-interpolation-filters="sRGB">
<feFlood flood-opacity="0" result="BackgroundImageFix"/>
<feBlend mode="normal" in="SourceGraphic" in2="BackgroundImageFix" result="shape"/>
<feGaussianBlur stdDeviation="0.5" result="effect1_foregroundBlur_194_3896"/>
</filter>
<filter id="filter4_df_194_3896" x="61.5" y="2.5" width="104.5" height="26" filterUnits="userSpaceOnUse" color-interpolation-filters="sRGB">
<feFlood flood-opacity="0" result="BackgroundImageFix"/>
<feColorMatrix in="SourceAlpha" type="matrix" values="0 0 0 0 0 0 0 0 0 0 0 0 0 0 0 0 0 0 127 0" result="hardAlpha"/>
<feOffset dy="2"/>
<feGaussianBlur stdDeviation="2"/>
<feComposite in2="hardAlpha" operator="out"/>
<feColorMatrix type="matrix" values="0 0 0 0 0 0 0 0 0 0 0 0 0 0 0 0 0 0 0.4 0"/>
<feBlend mode="normal" in2="BackgroundImageFix" result="effect1_dropShadow_194_3896"/>
<feBlend mode="normal" in="SourceGraphic" in2="effect1_dropShadow_194_3896" result="shape"/>
<feGaussianBlur stdDeviation="1" result="effect2_foregroundBlur_194_3896"/>
</filter>
<filter id="filter5_df_194_3896" x="7.5" y="24.5" width="218.5" height="31.5" filterUnits="userSpaceOnUse" color-interpolation-filters="sRGB">
<feFlood flood-opacity="0" result="BackgroundImageFix"/>
<feColorMatrix in="SourceAlpha" type="matrix" values="0 0 0 0 0 0 0 0 0 0 0 0 0 0 0 0 0 0 127 0" result="hardAlpha"/>
<feOffset dy="4"/>
<feGaussianBlur stdDeviation="4"/>
<feComposite in2="hardAlpha" operator="out"/>
<feColorMatrix type="matrix" values="0 0 0 0 0 0 0 0 0 0 0 0 0 0 0 0 0 0 0.25 0"/>
<feBlend mode="normal" in2="BackgroundImageFix" result="effect1_dropShadow_194_3896"/>
<feBlend mode="normal" in="SourceGraphic" in2="effect1_dropShadow_194_3896" result="shape"/>
<feGaussianBlur stdDeviation="2" result="effect2_foregroundBlur_194_3896"/>
</filter>
<filter id="filter6_df_194_3896" x="167.5" y="22.5" width="52.5" height="31" filterUnits="userSpaceOnUse" color-interpolation-filters="sRGB">
<feFlood flood-opacity="0" result="BackgroundImageFix"/>
<feColorMatrix in="SourceAlpha" type="matrix" values="0 0 0 0 0 0 0 0 0 0 0 0 0 0 0 0 0 0 127 0" result="hardAlpha"/>
<feOffset dy="2"/>
<feGaussianBlur stdDeviation="2"/>
<feComposite in2="hardAlpha" operator="out"/>
<feColorMatrix type="matrix" values="0 0 0 0 0 0 0 0 0 0 0 0 0 0 0 0 0 0 0.3 0"/>
<feBlend mode="normal" in2="BackgroundImageFix" result="effect1_dropShadow_194_3896"/>
<feBlend mode="normal" in="SourceGraphic" in2="effect1_dropShadow_194_3896" result="shape"/>
<feGaussianBlur stdDeviation="0.5" result="effect2_foregroundBlur_194_3896"/>
</filter>
</defs>
</svg>
