<svg width="228" height="337" viewBox="0 0 228 337" fill="none" xmlns="http://www.w3.org/2000/svg">
<g filter="url(#filter0_dif_194_3821)">
<path d="M8 67.5H220L183.5 307.5C178.616 319.869 168.5 329 162.5 329H65.5C59.5 329 48.9234 319.676 44.5 307.5L8 67.5Z" fill="#D9AA21"/>
</g>
<g filter="url(#filter1_df_194_3821)">
<path d="M15 69.5H98.5C63 78 50.5961 92 53.8819 120C63.6895 203.576 74.0908 292.182 78 300C84.9354 313.871 93.3895 320.881 111.5 324.5L68.5 321.5C59.6461 318.062 53.2077 317.865 49.5 302L15 69.5Z" fill="#EEC449"/>
</g>
<g filter="url(#filter2_df_194_3821)">
<path d="M143 69.5L219 68.5L201.5 183C200.674 144.251 208.5 76.5 143 69.5Z" fill="#B08A1B"/>
</g>
<g filter="url(#filter3_f_194_3821)">
<path d="M1 52.5C1 50.2909 2.79086 48.5 5 48.5H6.86304C9.45781 48.5 11.8914 47.2415 13.3912 45.1241L24.4131 29.5638C26.6629 26.3877 30.3133 24.5 34.2054 24.5H52.7686C55.4158 24.5 57.8916 23.1905 59.3814 21.0023L69.4279 6.24651C71.6626 2.96426 75.3763 1 79.3471 1H147.923C152.02 1 155.834 3.09017 158.038 6.54358L167.141 20.8043C168.611 23.1066 171.153 24.5 173.884 24.5H193.188C197.139 24.5 200.837 26.4454 203.076 29.7017L213.616 45.0322C215.108 47.2031 217.574 48.5 220.208 48.5H223C225.209 48.5 227 50.2909 227 52.5V64.5C227 66.7091 225.209 68.5 223 68.5H5C2.79086 68.5 1 66.7091 1 64.5V52.5Z" fill="#D9AA21"/>
</g>
<g filter="url(#filter4_df_194_3821)">
<path d="M75.2305 7.26967C76.3329 5.54418 78.2391 4.5 80.2867 4.5H145.932C147.859 4.5 149.668 5.42518 150.796 6.98706L162 22.5H65.5L75.2305 7.26967Z" fill="#1F1F1F"/>
</g>
<g filter="url(#filter5_df_194_3821)">
<path d="M27.5 28.5C72 44 134.25 41.9194 218 44H15.5L27.5 28.5Z" fill="#EEC449"/>
</g>
<g filter="url(#filter6_df_194_3821)">
<path d="M171.5 24.5H195.393C197.971 24.5 200.391 25.7422 201.894 27.8367L216 47.5C202.531 36.2602 189.877 29.7926 171.5 24.5Z" fill="#B08A1B"/>
</g>
<path d="M99.6992 125.823C100.458 124.684 101.737 124 103.105 124H130.784C132.25 124 133.604 124.784 134.334 126.055L140.062 136.026L143.671 134.402C144.129 134.195 144.58 134.705 144.318 135.135L136.267 148.328C136.081 148.633 135.75 148.819 135.393 148.819H120.003C119.497 148.819 119.298 148.162 119.72 147.881L122.919 145.748L117.63 136.273C117.249 135.59 116.273 135.57 115.864 136.237L107.593 149.732C107.297 150.216 106.663 150.366 106.181 150.067L91.066 140.677C90.5749 140.372 90.4338 139.721 90.7545 139.24L99.6992 125.823Z" fill="white"/>
<path d="M154.988 165.434C155.648 166.633 155.666 168.082 155.035 169.297L142.273 193.858C141.597 195.158 140.277 195.999 138.813 196.06L127.324 196.546L127.101 200.497C127.073 200.999 126.413 201.163 126.152 200.733L118.157 187.506C117.972 187.201 117.96 186.821 118.124 186.505L125.22 172.848C125.454 172.399 126.128 172.525 126.183 173.029L126.601 176.851L137.447 176.527C138.229 176.504 138.697 175.647 138.293 174.976L130.132 161.415C129.839 160.928 129.998 160.297 130.487 160.007L145.787 150.924C146.285 150.629 146.927 150.804 147.206 151.31L154.988 165.434Z" fill="white"/>
<path d="M93.8273 197.116C92.2842 197.153 90.851 196.32 90.1205 194.96L75.8136 168.33C75.1878 167.165 75.1632 165.769 75.7475 164.583L81.4486 153.01L78.227 150.712C77.8174 150.419 78.0312 149.774 78.5342 149.783L93.987 150.087C94.3437 150.094 94.6711 150.286 94.8509 150.594L102.608 163.886C102.863 164.324 102.396 164.826 101.941 164.604L98.4865 162.916L91.861 175.083C91.4939 175.757 91.972 176.58 92.7394 176.596L110.197 176.945C110.734 176.956 111.171 177.379 111.199 177.915L112.118 195.615C112.148 196.19 111.697 196.677 111.121 196.691L93.8273 197.116Z" fill="white"/>
<path d="M95.793 229.012H90.8594V227.289C90.8594 226.203 90.8125 225.523 90.7188 225.25C90.625 224.977 90.4023 224.84 90.0508 224.84C89.7461 224.84 89.5391 224.957 89.4297 225.191C89.3203 225.426 89.2656 226.027 89.2656 226.996V236.102C89.2656 236.953 89.3203 237.516 89.4297 237.789C89.5391 238.055 89.7578 238.188 90.0859 238.188C90.4453 238.188 90.6875 238.035 90.8125 237.73C90.9453 237.426 91.0117 236.832 91.0117 235.949V233.699H90.0156V230.816H95.793V241H92.6875L92.2305 239.641C91.8945 240.227 91.4688 240.668 90.9531 240.965C90.4453 241.254 89.8438 241.398 89.1484 241.398C88.3203 241.398 87.543 241.199 86.8164 240.801C86.0977 240.395 85.5508 239.895 85.1758 239.301C84.8008 238.707 84.5664 238.086 84.4727 237.438C84.3789 236.781 84.332 235.801 84.332 234.496V228.859C84.332 227.047 84.4297 225.73 84.625 224.91C84.8203 224.09 85.3789 223.34 86.3008 222.66C87.2305 221.973 88.4297 221.629 89.8984 221.629C91.3438 221.629 92.543 221.926 93.4961 222.52C94.4492 223.113 95.0703 223.82 95.3594 224.641C95.6484 225.453 95.793 226.637 95.793 228.191V229.012ZM102.648 222.027V237.203H105.648V241H97.7148V222.027H102.648ZM115.984 222.027L118.809 241H113.758L113.512 237.59H111.742L111.449 241H106.34L108.848 222.027H115.984ZM113.371 234.227C113.121 232.078 112.871 229.426 112.621 226.27C112.121 229.895 111.809 232.547 111.684 234.227H113.371ZM130.105 227.77H125.523V226.363C125.523 225.707 125.465 225.289 125.348 225.109C125.23 224.93 125.035 224.84 124.762 224.84C124.465 224.84 124.238 224.961 124.082 225.203C123.934 225.445 123.859 225.812 123.859 226.305C123.859 226.938 123.945 227.414 124.117 227.734C124.281 228.055 124.746 228.441 125.512 228.895C127.707 230.199 129.09 231.27 129.66 232.105C130.23 232.941 130.516 234.289 130.516 236.148C130.516 237.5 130.355 238.496 130.035 239.137C129.723 239.777 129.113 240.316 128.207 240.754C127.301 241.184 126.246 241.398 125.043 241.398C123.723 241.398 122.594 241.148 121.656 240.648C120.727 240.148 120.117 239.512 119.828 238.738C119.539 237.965 119.395 236.867 119.395 235.445V234.203H123.977V236.512C123.977 237.223 124.039 237.68 124.164 237.883C124.297 238.086 124.527 238.188 124.855 238.188C125.184 238.188 125.426 238.059 125.582 237.801C125.746 237.543 125.828 237.16 125.828 236.652C125.828 235.535 125.676 234.805 125.371 234.461C125.059 234.117 124.289 233.543 123.062 232.738C121.836 231.926 121.023 231.336 120.625 230.969C120.227 230.602 119.895 230.094 119.629 229.445C119.371 228.797 119.242 227.969 119.242 226.961C119.242 225.508 119.426 224.445 119.793 223.773C120.168 223.102 120.77 222.578 121.598 222.203C122.426 221.82 123.426 221.629 124.598 221.629C125.879 221.629 126.969 221.836 127.867 222.25C128.773 222.664 129.371 223.188 129.66 223.82C129.957 224.445 130.105 225.512 130.105 227.02V227.77ZM142.527 227.77H137.945V226.363C137.945 225.707 137.887 225.289 137.77 225.109C137.652 224.93 137.457 224.84 137.184 224.84C136.887 224.84 136.66 224.961 136.504 225.203C136.355 225.445 136.281 225.812 136.281 226.305C136.281 226.938 136.367 227.414 136.539 227.734C136.703 228.055 137.168 228.441 137.934 228.895C140.129 230.199 141.512 231.27 142.082 232.105C142.652 232.941 142.938 234.289 142.938 236.148C142.938 237.5 142.777 238.496 142.457 239.137C142.145 239.777 141.535 240.316 140.629 240.754C139.723 241.184 138.668 241.398 137.465 241.398C136.145 241.398 135.016 241.148 134.078 240.648C133.148 240.148 132.539 239.512 132.25 238.738C131.961 237.965 131.816 236.867 131.816 235.445V234.203H136.398V236.512C136.398 237.223 136.461 237.68 136.586 237.883C136.719 238.086 136.949 238.188 137.277 238.188C137.605 238.188 137.848 238.059 138.004 237.801C138.168 237.543 138.25 237.16 138.25 236.652C138.25 235.535 138.098 234.805 137.793 234.461C137.48 234.117 136.711 233.543 135.484 232.738C134.258 231.926 133.445 231.336 133.047 230.969C132.648 230.602 132.316 230.094 132.051 229.445C131.793 228.797 131.664 227.969 131.664 226.961C131.664 225.508 131.848 224.445 132.215 223.773C132.59 223.102 133.191 222.578 134.02 222.203C134.848 221.82 135.848 221.629 137.02 221.629C138.301 221.629 139.391 221.836 140.289 222.25C141.195 222.664 141.793 223.188 142.082 223.82C142.379 224.445 142.527 225.512 142.527 227.02V227.77Z" fill="white"/>
<defs>
<filter id="filter0_dif_194_3821" x="4" y="66.5" width="220" height="270.5" filterUnits="userSpaceOnUse" color-interpolation-filters="sRGB">
<feFlood flood-opacity="0" result="BackgroundImageFix"/>
<feColorMatrix in="SourceAlpha" type="matrix" values="0 0 0 0 0 0 0 0 0 0 0 0 0 0 0 0 0 0 127 0" result="hardAlpha"/>
<feOffset dy="4"/>
<feGaussianBlur stdDeviation="2"/>
<feComposite in2="hardAlpha" operator="out"/>
<feColorMatrix type="matrix" values="0 0 0 0 0 0 0 0 0 0 0 0 0 0 0 0 0 0 0.25 0"/>
<feBlend mode="normal" in2="BackgroundImageFix" result="effect1_dropShadow_194_3821"/>
<feBlend mode="normal" in="SourceGraphic" in2="effect1_dropShadow_194_3821" result="shape"/>
<feColorMatrix in="SourceAlpha" type="matrix" values="0 0 0 0 0 0 0 0 0 0 0 0 0 0 0 0 0 0 127 0" result="hardAlpha"/>
<feOffset dy="8"/>
<feGaussianBlur stdDeviation="6"/>
<feComposite in2="hardAlpha" operator="arithmetic" k2="-1" k3="1"/>
<feColorMatrix type="matrix" values="0 0 0 0 0 0 0 0 0 0 0 0 0 0 0 0 0 0 0.25 0"/>
<feBlend mode="normal" in2="shape" result="effect2_innerShadow_194_3821"/>
<feGaussianBlur stdDeviation="0.5" result="effect3_foregroundBlur_194_3821"/>
</filter>
<filter id="filter1_df_194_3821" x="11" y="65.5" width="112.5" height="271" filterUnits="userSpaceOnUse" color-interpolation-filters="sRGB">
<feFlood flood-opacity="0" result="BackgroundImageFix"/>
<feColorMatrix in="SourceAlpha" type="matrix" values="0 0 0 0 0 0 0 0 0 0 0 0 0 0 0 0 0 0 127 0" result="hardAlpha"/>
<feOffset dx="4" dy="4"/>
<feGaussianBlur stdDeviation="4"/>
<feComposite in2="hardAlpha" operator="out"/>
<feColorMatrix type="matrix" values="0 0 0 0 0 0 0 0 0 0 0 0 0 0 0 0 0 0 0.15 0"/>
<feBlend mode="normal" in2="BackgroundImageFix" result="effect1_dropShadow_194_3821"/>
<feBlend mode="normal" in="SourceGraphic" in2="effect1_dropShadow_194_3821" result="shape"/>
<feGaussianBlur stdDeviation="2" result="effect2_foregroundBlur_194_3821"/>
</filter>
<filter id="filter2_df_194_3821" x="135" y="64.5" width="92" height="130.5" filterUnits="userSpaceOnUse" color-interpolation-filters="sRGB">
<feFlood flood-opacity="0" result="BackgroundImageFix"/>
<feColorMatrix in="SourceAlpha" type="matrix" values="0 0 0 0 0 0 0 0 0 0 0 0 0 0 0 0 0 0 127 0" result="hardAlpha"/>
<feOffset dy="4"/>
<feGaussianBlur stdDeviation="4"/>
<feComposite in2="hardAlpha" operator="out"/>
<feColorMatrix type="matrix" values="0 0 0 0 0 0 0 0 0 0 0 0 0 0 0 0 0 0 0.25 0"/>
<feBlend mode="normal" in2="BackgroundImageFix" result="effect1_dropShadow_194_3821"/>
<feBlend mode="normal" in="SourceGraphic" in2="effect1_dropShadow_194_3821" result="shape"/>
<feGaussianBlur stdDeviation="2" result="effect2_foregroundBlur_194_3821"/>
</filter>
<filter id="filter3_f_194_3821" x="0" y="0" width="228" height="69.5" filterUnits="userSpaceOnUse" color-interpolation-filters="sRGB">
<feFlood flood-opacity="0" result="BackgroundImageFix"/>
<feBlend mode="normal" in="SourceGraphic" in2="BackgroundImageFix" result="shape"/>
<feGaussianBlur stdDeviation="0.5" result="effect1_foregroundBlur_194_3821"/>
</filter>
<filter id="filter4_df_194_3821" x="61.5" y="2.5" width="104.5" height="26" filterUnits="userSpaceOnUse" color-interpolation-filters="sRGB">
<feFlood flood-opacity="0" result="BackgroundImageFix"/>
<feColorMatrix in="SourceAlpha" type="matrix" values="0 0 0 0 0 0 0 0 0 0 0 0 0 0 0 0 0 0 127 0" result="hardAlpha"/>
<feOffset dy="2"/>
<feGaussianBlur stdDeviation="2"/>
<feComposite in2="hardAlpha" operator="out"/>
<feColorMatrix type="matrix" values="0 0 0 0 0 0 0 0 0 0 0 0 0 0 0 0 0 0 0.4 0"/>
<feBlend mode="normal" in2="BackgroundImageFix" result="effect1_dropShadow_194_3821"/>
<feBlend mode="normal" in="SourceGraphic" in2="effect1_dropShadow_194_3821" result="shape"/>
<feGaussianBlur stdDeviation="1" result="effect2_foregroundBlur_194_3821"/>
</filter>
<filter id="filter5_df_194_3821" x="7.5" y="24.5" width="218.5" height="31.5" filterUnits="userSpaceOnUse" color-interpolation-filters="sRGB">
<feFlood flood-opacity="0" result="BackgroundImageFix"/>
<feColorMatrix in="SourceAlpha" type="matrix" values="0 0 0 0 0 0 0 0 0 0 0 0 0 0 0 0 0 0 127 0" result="hardAlpha"/>
<feOffset dy="4"/>
<feGaussianBlur stdDeviation="4"/>
<feComposite in2="hardAlpha" operator="out"/>
<feColorMatrix type="matrix" values="0 0 0 0 0 0 0 0 0 0 0 0 0 0 0 0 0 0 0.25 0"/>
<feBlend mode="normal" in2="BackgroundImageFix" result="effect1_dropShadow_194_3821"/>
<feBlend mode="normal" in="SourceGraphic" in2="effect1_dropShadow_194_3821" result="shape"/>
<feGaussianBlur stdDeviation="2" result="effect2_foregroundBlur_194_3821"/>
</filter>
<filter id="filter6_df_194_3821" x="167.5" y="22.5" width="52.5" height="31" filterUnits="userSpaceOnUse" color-interpolation-filters="sRGB">
<feFlood flood-opacity="0" result="BackgroundImageFix"/>
<feColorMatrix in="SourceAlpha" type="matrix" values="0 0 0 0 0 0 0 0 0 0 0 0 0 0 0 0 0 0 127 0" result="hardAlpha"/>
<feOffset dy="2"/>
<feGaussianBlur stdDeviation="2"/>
<feComposite in2="hardAlpha" operator="out"/>
<feColorMatrix type="matrix" values="0 0 0 0 0 0 0 0 0 0 0 0 0 0 0 0 0 0 0.3 0"/>
<feBlend mode="normal" in2="BackgroundImageFix" result="effect1_dropShadow_194_3821"/>
<feBlend mode="normal" in="SourceGraphic" in2="effect1_dropShadow_194_3821" result="shape"/>
<feGaussianBlur stdDeviation="0.5" result="effect2_foregroundBlur_194_3821"/>
</filter>
</defs>
</svg>
