<svg width="228" height="337" viewBox="0 0 228 337" fill="none" xmlns="http://www.w3.org/2000/svg">
<g filter="url(#filter0_dif_194_3806)">
<path d="M8 67.5H220L183.5 307.5C178.616 319.869 168.5 329 162.5 329H65.5C59.5 329 48.9234 319.676 44.5 307.5L8 67.5Z" fill="#2A9848"/>
</g>
<g filter="url(#filter1_df_194_3806)">
<path d="M15 69.5H98.5C63 78 50.5961 92 53.8819 120C63.6895 203.576 74.0908 292.182 78 300C84.9354 313.871 93.3895 320.881 111.5 324.5L68.5 321.5C59.6461 318.062 53.2077 317.865 49.5 302L15 69.5Z" fill="#5DCD7B"/>
</g>
<g filter="url(#filter2_df_194_3806)">
<path d="M143 69.5L219 68.5L201.5 183C200.674 144.251 208.5 76.5 143 69.5Z" fill="#217839"/>
</g>
<g filter="url(#filter3_f_194_3806)">
<path d="M1 52.5C1 50.2909 2.79086 48.5 5 48.5H6.86304C9.45781 48.5 11.8914 47.2415 13.3912 45.1241L24.4131 29.5638C26.6629 26.3877 30.3133 24.5 34.2054 24.5H52.7686C55.4158 24.5 57.8916 23.1905 59.3814 21.0023L69.4279 6.24651C71.6626 2.96426 75.3763 1 79.3471 1H147.923C152.02 1 155.834 3.09017 158.038 6.54358L167.141 20.8043C168.611 23.1066 171.153 24.5 173.884 24.5H193.188C197.139 24.5 200.837 26.4454 203.076 29.7017L213.616 45.0322C215.108 47.2031 217.574 48.5 220.208 48.5H223C225.209 48.5 227 50.2909 227 52.5V64.5C227 66.7091 225.209 68.5 223 68.5H5C2.79086 68.5 1 66.7091 1 64.5V52.5Z" fill="#2A9848"/>
</g>
<g filter="url(#filter4_df_194_3806)">
<path d="M75.2305 7.26967C76.3329 5.54418 78.2391 4.5 80.2867 4.5H145.932C147.859 4.5 149.668 5.42518 150.796 6.98706L162 22.5H65.5L75.2305 7.26967Z" fill="#1F1F1F"/>
</g>
<g filter="url(#filter5_df_194_3806)">
<path d="M27.5 28.5C72 44 134.25 41.9194 218 44H15.5L27.5 28.5Z" fill="#5DCD7B"/>
</g>
<g filter="url(#filter6_df_194_3806)">
<path d="M171.5 24.5H195.393C197.971 24.5 200.391 25.7422 201.894 27.8367L216 47.5C202.531 36.2602 189.877 29.7926 171.5 24.5Z" fill="#217839"/>
</g>
<path d="M99.6992 125.823C100.458 124.684 101.737 124 103.105 124H130.784C132.25 124 133.604 124.784 134.334 126.055L140.062 136.026L143.671 134.402C144.129 134.195 144.58 134.705 144.318 135.135L136.267 148.328C136.081 148.633 135.75 148.819 135.393 148.819H120.003C119.497 148.819 119.298 148.162 119.72 147.881L122.919 145.748L117.63 136.273C117.249 135.59 116.273 135.57 115.864 136.237L107.593 149.732C107.297 150.216 106.663 150.366 106.181 150.067L91.066 140.677C90.5749 140.372 90.4338 139.721 90.7545 139.24L99.6992 125.823Z" fill="white"/>
<path d="M154.988 165.434C155.648 166.633 155.666 168.082 155.035 169.297L142.273 193.858C141.597 195.158 140.277 195.999 138.813 196.06L127.324 196.546L127.101 200.497C127.073 200.999 126.413 201.163 126.152 200.733L118.157 187.506C117.972 187.201 117.96 186.821 118.124 186.505L125.22 172.848C125.454 172.399 126.128 172.525 126.183 173.029L126.601 176.851L137.447 176.527C138.229 176.504 138.697 175.647 138.293 174.976L130.132 161.415C129.839 160.928 129.998 160.297 130.487 160.007L145.787 150.924C146.285 150.629 146.927 150.804 147.206 151.31L154.988 165.434Z" fill="white"/>
<path d="M93.8273 197.116C92.2842 197.153 90.851 196.32 90.1205 194.96L75.8136 168.33C75.1878 167.165 75.1632 165.769 75.7475 164.583L81.4486 153.01L78.227 150.712C77.8174 150.419 78.0312 149.774 78.5342 149.783L93.987 150.087C94.3437 150.094 94.6711 150.286 94.8509 150.594L102.608 163.886C102.863 164.324 102.396 164.826 101.941 164.604L98.4865 162.916L91.861 175.083C91.4939 175.757 91.972 176.58 92.7394 176.596L110.197 176.945C110.734 176.956 111.171 177.379 111.199 177.915L112.118 195.615C112.148 196.19 111.697 196.677 111.121 196.691L93.8273 197.116Z" fill="white"/>
<path d="M83.2578 233.137C83.2578 235.043 83.2109 236.395 83.1172 237.191C83.0312 237.98 82.75 238.703 82.2734 239.359C81.8047 240.016 81.168 240.52 80.3633 240.871C79.5586 241.223 78.6211 241.398 77.5508 241.398C76.5352 241.398 75.6211 241.234 74.8086 240.906C74.0039 240.57 73.3555 240.07 72.8633 239.406C72.3711 238.742 72.0781 238.02 71.9844 237.238C71.8906 236.457 71.8438 235.09 71.8438 233.137V229.891C71.8438 227.984 71.8867 226.637 71.9727 225.848C72.0664 225.051 72.3477 224.324 72.8164 223.668C73.293 223.012 73.9336 222.508 74.7383 222.156C75.543 221.805 76.4805 221.629 77.5508 221.629C78.5664 221.629 79.4766 221.797 80.2812 222.133C81.0938 222.461 81.7461 222.957 82.2383 223.621C82.7305 224.285 83.0234 225.008 83.1172 225.789C83.2109 226.57 83.2578 227.938 83.2578 229.891V233.137ZM78.3242 226.902C78.3242 226.02 78.2734 225.457 78.1719 225.215C78.0781 224.965 77.8789 224.84 77.5742 224.84C77.3164 224.84 77.1172 224.941 76.9766 225.145C76.8438 225.34 76.7773 225.926 76.7773 226.902V235.762C76.7773 236.863 76.8203 237.543 76.9062 237.801C77 238.059 77.2109 238.188 77.5391 238.188C77.875 238.188 78.0898 238.039 78.1836 237.742C78.2773 237.445 78.3242 236.738 78.3242 235.621V226.902ZM85.1094 222.027H88.6016C90.9297 222.027 92.5039 222.117 93.3242 222.297C94.1523 222.477 94.8242 222.938 95.3398 223.68C95.8633 224.414 96.125 225.59 96.125 227.207C96.125 228.684 95.9414 229.676 95.5742 230.184C95.207 230.691 94.4844 230.996 93.4062 231.098C94.3828 231.34 95.0391 231.664 95.375 232.07C95.7109 232.477 95.918 232.852 95.9961 233.195C96.082 233.531 96.125 234.465 96.125 235.996V241H91.543V234.695C91.543 233.68 91.4609 233.051 91.2969 232.809C91.1406 232.566 90.7227 232.445 90.043 232.445V241H85.1094V222.027ZM90.043 225.273V229.492C90.5977 229.492 90.9844 229.418 91.2031 229.27C91.4297 229.113 91.543 228.617 91.543 227.781V226.738C91.543 226.137 91.4336 225.742 91.2148 225.555C91.0039 225.367 90.6133 225.273 90.043 225.273ZM109.367 229.012H104.434V227.289C104.434 226.203 104.387 225.523 104.293 225.25C104.199 224.977 103.977 224.84 103.625 224.84C103.32 224.84 103.113 224.957 103.004 225.191C102.895 225.426 102.84 226.027 102.84 226.996V236.102C102.84 236.953 102.895 237.516 103.004 237.789C103.113 238.055 103.332 238.188 103.66 238.188C104.02 238.188 104.262 238.035 104.387 237.73C104.52 237.426 104.586 236.832 104.586 235.949V233.699H103.59V230.816H109.367V241H106.262L105.805 239.641C105.469 240.227 105.043 240.668 104.527 240.965C104.02 241.254 103.418 241.398 102.723 241.398C101.895 241.398 101.117 241.199 100.391 240.801C99.6719 240.395 99.125 239.895 98.75 239.301C98.375 238.707 98.1406 238.086 98.0469 237.438C97.9531 236.781 97.9062 235.801 97.9062 234.496V228.859C97.9062 227.047 98.0039 225.73 98.1992 224.91C98.3945 224.09 98.9531 223.34 99.875 222.66C100.805 221.973 102.004 221.629 103.473 221.629C104.918 221.629 106.117 221.926 107.07 222.52C108.023 223.113 108.645 223.82 108.934 224.641C109.223 225.453 109.367 226.637 109.367 228.191V229.012ZM119.809 222.027L122.633 241H117.582L117.336 237.59H115.566L115.273 241H110.164L112.672 222.027H119.809ZM117.195 234.227C116.945 232.078 116.695 229.426 116.445 226.27C115.945 229.895 115.633 232.547 115.508 234.227H117.195ZM134.492 222.027V241H130.168L127.602 232.375V241H123.477V222.027H127.602L130.367 230.57V222.027H134.492ZM141.418 222.027V241H136.484V222.027H141.418ZM154.918 230.301H149.984V226.996C149.984 226.035 149.93 225.438 149.82 225.203C149.719 224.961 149.488 224.84 149.129 224.84C148.723 224.84 148.465 224.984 148.355 225.273C148.246 225.562 148.191 226.188 148.191 227.148V235.961C148.191 236.883 148.246 237.484 148.355 237.766C148.465 238.047 148.711 238.188 149.094 238.188C149.461 238.188 149.699 238.047 149.809 237.766C149.926 237.484 149.984 236.824 149.984 235.785V233.406H154.918V234.145C154.918 236.105 154.777 237.496 154.496 238.316C154.223 239.137 153.609 239.855 152.656 240.473C151.711 241.09 150.543 241.398 149.152 241.398C147.707 241.398 146.516 241.137 145.578 240.613C144.641 240.09 144.02 239.367 143.715 238.445C143.41 237.516 143.258 236.121 143.258 234.262V228.719C143.258 227.352 143.305 226.328 143.398 225.648C143.492 224.961 143.77 224.301 144.23 223.668C144.699 223.035 145.344 222.539 146.164 222.18C146.992 221.812 147.941 221.629 149.012 221.629C150.465 221.629 151.664 221.91 152.609 222.473C153.555 223.035 154.176 223.738 154.473 224.582C154.77 225.418 154.918 226.723 154.918 228.496V230.301Z" fill="white"/>
<defs>
<filter id="filter0_dif_194_3806" x="4" y="66.5" width="220" height="270.5" filterUnits="userSpaceOnUse" color-interpolation-filters="sRGB">
<feFlood flood-opacity="0" result="BackgroundImageFix"/>
<feColorMatrix in="SourceAlpha" type="matrix" values="0 0 0 0 0 0 0 0 0 0 0 0 0 0 0 0 0 0 127 0" result="hardAlpha"/>
<feOffset dy="4"/>
<feGaussianBlur stdDeviation="2"/>
<feComposite in2="hardAlpha" operator="out"/>
<feColorMatrix type="matrix" values="0 0 0 0 0 0 0 0 0 0 0 0 0 0 0 0 0 0 0.25 0"/>
<feBlend mode="normal" in2="BackgroundImageFix" result="effect1_dropShadow_194_3806"/>
<feBlend mode="normal" in="SourceGraphic" in2="effect1_dropShadow_194_3806" result="shape"/>
<feColorMatrix in="SourceAlpha" type="matrix" values="0 0 0 0 0 0 0 0 0 0 0 0 0 0 0 0 0 0 127 0" result="hardAlpha"/>
<feOffset dy="8"/>
<feGaussianBlur stdDeviation="6"/>
<feComposite in2="hardAlpha" operator="arithmetic" k2="-1" k3="1"/>
<feColorMatrix type="matrix" values="0 0 0 0 0 0 0 0 0 0 0 0 0 0 0 0 0 0 0.25 0"/>
<feBlend mode="normal" in2="shape" result="effect2_innerShadow_194_3806"/>
<feGaussianBlur stdDeviation="0.5" result="effect3_foregroundBlur_194_3806"/>
</filter>
<filter id="filter1_df_194_3806" x="11" y="65.5" width="112.5" height="271" filterUnits="userSpaceOnUse" color-interpolation-filters="sRGB">
<feFlood flood-opacity="0" result="BackgroundImageFix"/>
<feColorMatrix in="SourceAlpha" type="matrix" values="0 0 0 0 0 0 0 0 0 0 0 0 0 0 0 0 0 0 127 0" result="hardAlpha"/>
<feOffset dx="4" dy="4"/>
<feGaussianBlur stdDeviation="4"/>
<feComposite in2="hardAlpha" operator="out"/>
<feColorMatrix type="matrix" values="0 0 0 0 0 0 0 0 0 0 0 0 0 0 0 0 0 0 0.15 0"/>
<feBlend mode="normal" in2="BackgroundImageFix" result="effect1_dropShadow_194_3806"/>
<feBlend mode="normal" in="SourceGraphic" in2="effect1_dropShadow_194_3806" result="shape"/>
<feGaussianBlur stdDeviation="2" result="effect2_foregroundBlur_194_3806"/>
</filter>
<filter id="filter2_df_194_3806" x="135" y="64.5" width="92" height="130.5" filterUnits="userSpaceOnUse" color-interpolation-filters="sRGB">
<feFlood flood-opacity="0" result="BackgroundImageFix"/>
<feColorMatrix in="SourceAlpha" type="matrix" values="0 0 0 0 0 0 0 0 0 0 0 0 0 0 0 0 0 0 127 0" result="hardAlpha"/>
<feOffset dy="4"/>
<feGaussianBlur stdDeviation="4"/>
<feComposite in2="hardAlpha" operator="out"/>
<feColorMatrix type="matrix" values="0 0 0 0 0 0 0 0 0 0 0 0 0 0 0 0 0 0 0.25 0"/>
<feBlend mode="normal" in2="BackgroundImageFix" result="effect1_dropShadow_194_3806"/>
<feBlend mode="normal" in="SourceGraphic" in2="effect1_dropShadow_194_3806" result="shape"/>
<feGaussianBlur stdDeviation="2" result="effect2_foregroundBlur_194_3806"/>
</filter>
<filter id="filter3_f_194_3806" x="0" y="0" width="228" height="69.5" filterUnits="userSpaceOnUse" color-interpolation-filters="sRGB">
<feFlood flood-opacity="0" result="BackgroundImageFix"/>
<feBlend mode="normal" in="SourceGraphic" in2="BackgroundImageFix" result="shape"/>
<feGaussianBlur stdDeviation="0.5" result="effect1_foregroundBlur_194_3806"/>
</filter>
<filter id="filter4_df_194_3806" x="61.5" y="2.5" width="104.5" height="26" filterUnits="userSpaceOnUse" color-interpolation-filters="sRGB">
<feFlood flood-opacity="0" result="BackgroundImageFix"/>
<feColorMatrix in="SourceAlpha" type="matrix" values="0 0 0 0 0 0 0 0 0 0 0 0 0 0 0 0 0 0 127 0" result="hardAlpha"/>
<feOffset dy="2"/>
<feGaussianBlur stdDeviation="2"/>
<feComposite in2="hardAlpha" operator="out"/>
<feColorMatrix type="matrix" values="0 0 0 0 0 0 0 0 0 0 0 0 0 0 0 0 0 0 0.4 0"/>
<feBlend mode="normal" in2="BackgroundImageFix" result="effect1_dropShadow_194_3806"/>
<feBlend mode="normal" in="SourceGraphic" in2="effect1_dropShadow_194_3806" result="shape"/>
<feGaussianBlur stdDeviation="1" result="effect2_foregroundBlur_194_3806"/>
</filter>
<filter id="filter5_df_194_3806" x="7.5" y="24.5" width="218.5" height="31.5" filterUnits="userSpaceOnUse" color-interpolation-filters="sRGB">
<feFlood flood-opacity="0" result="BackgroundImageFix"/>
<feColorMatrix in="SourceAlpha" type="matrix" values="0 0 0 0 0 0 0 0 0 0 0 0 0 0 0 0 0 0 127 0" result="hardAlpha"/>
<feOffset dy="4"/>
<feGaussianBlur stdDeviation="4"/>
<feComposite in2="hardAlpha" operator="out"/>
<feColorMatrix type="matrix" values="0 0 0 0 0 0 0 0 0 0 0 0 0 0 0 0 0 0 0.25 0"/>
<feBlend mode="normal" in2="BackgroundImageFix" result="effect1_dropShadow_194_3806"/>
<feBlend mode="normal" in="SourceGraphic" in2="effect1_dropShadow_194_3806" result="shape"/>
<feGaussianBlur stdDeviation="2" result="effect2_foregroundBlur_194_3806"/>
</filter>
<filter id="filter6_df_194_3806" x="167.5" y="22.5" width="52.5" height="31" filterUnits="userSpaceOnUse" color-interpolation-filters="sRGB">
<feFlood flood-opacity="0" result="BackgroundImageFix"/>
<feColorMatrix in="SourceAlpha" type="matrix" values="0 0 0 0 0 0 0 0 0 0 0 0 0 0 0 0 0 0 127 0" result="hardAlpha"/>
<feOffset dy="2"/>
<feGaussianBlur stdDeviation="2"/>
<feComposite in2="hardAlpha" operator="out"/>
<feColorMatrix type="matrix" values="0 0 0 0 0 0 0 0 0 0 0 0 0 0 0 0 0 0 0.3 0"/>
<feBlend mode="normal" in2="BackgroundImageFix" result="effect1_dropShadow_194_3806"/>
<feBlend mode="normal" in="SourceGraphic" in2="effect1_dropShadow_194_3806" result="shape"/>
<feGaussianBlur stdDeviation="0.5" result="effect2_foregroundBlur_194_3806"/>
</filter>
</defs>
</svg>
