<svg width="228" height="337" viewBox="0 0 228 337" fill="none" xmlns="http://www.w3.org/2000/svg">
<g filter="url(#filter0_dif_194_3866)">
<path d="M8 67.5H220L183.5 307.5C178.616 319.869 168.5 329 162.5 329H65.5C59.5 329 48.9234 319.676 44.5 307.5L8 67.5Z" fill="#4285F4"/>
</g>
<g filter="url(#filter1_df_194_3866)">
<path d="M15 69.5H98.5C63 78 50.5961 92 53.8819 120C63.6895 203.576 74.0908 292.182 78 300C84.9354 313.871 93.3895 320.881 111.5 324.5L68.5 321.5C59.6461 318.062 53.2077 317.865 49.5 302L15 69.5Z" fill="#7EAFFF"/>
</g>
<g filter="url(#filter2_df_194_3866)">
<path d="M143 69.5L219 68.5L201.5 183C200.674 144.251 208.5 76.5 143 69.5Z" fill="#3469C2"/>
</g>
<g filter="url(#filter3_f_194_3866)">
<path d="M1 52.5C1 50.2909 2.79086 48.5 5 48.5H6.86304C9.45781 48.5 11.8914 47.2415 13.3912 45.1241L24.4131 29.5638C26.6629 26.3877 30.3133 24.5 34.2054 24.5H52.7686C55.4158 24.5 57.8916 23.1905 59.3814 21.0023L69.4279 6.24651C71.6626 2.96426 75.3763 1 79.3471 1H147.923C152.02 1 155.834 3.09017 158.038 6.54358L167.141 20.8043C168.611 23.1066 171.153 24.5 173.884 24.5H193.188C197.139 24.5 200.837 26.4454 203.076 29.7017L213.616 45.0322C215.108 47.2031 217.574 48.5 220.208 48.5H223C225.209 48.5 227 50.2909 227 52.5V64.5C227 66.7091 225.209 68.5 223 68.5H5C2.79086 68.5 1 66.7091 1 64.5V52.5Z" fill="#4285F4"/>
</g>
<g filter="url(#filter4_df_194_3866)">
<path d="M75.2305 7.26967C76.3329 5.54418 78.2391 4.5 80.2867 4.5H145.932C147.859 4.5 149.668 5.42518 150.796 6.98706L162 22.5H65.5L75.2305 7.26967Z" fill="#1F1F1F"/>
</g>
<g filter="url(#filter5_df_194_3866)">
<path d="M27.5 28.5C72 44 134.25 41.9194 218 44H15.5L27.5 28.5Z" fill="#7EAFFF"/>
</g>
<g filter="url(#filter6_df_194_3866)">
<path d="M171.5 24.5H195.393C197.971 24.5 200.391 25.7422 201.894 27.8367L216 47.5C202.531 36.2602 189.877 29.7926 171.5 24.5Z" fill="#3469C2"/>
</g>
<path d="M99.6992 125.823C100.458 124.684 101.737 124 103.105 124H130.784C132.25 124 133.604 124.784 134.334 126.055L140.062 136.026L143.671 134.402C144.129 134.195 144.58 134.705 144.318 135.135L136.267 148.328C136.081 148.633 135.75 148.819 135.393 148.819H120.003C119.497 148.819 119.298 148.162 119.72 147.881L122.919 145.748L117.63 136.273C117.249 135.59 116.273 135.57 115.864 136.237L107.593 149.732C107.297 150.216 106.663 150.366 106.181 150.067L91.066 140.677C90.5749 140.372 90.4338 139.721 90.7545 139.24L99.6992 125.823Z" fill="white"/>
<path d="M154.988 165.434C155.648 166.633 155.666 168.082 155.035 169.297L142.273 193.858C141.597 195.158 140.277 195.999 138.813 196.06L127.324 196.546L127.101 200.497C127.073 200.999 126.413 201.163 126.152 200.733L118.157 187.506C117.972 187.201 117.96 186.821 118.124 186.505L125.22 172.848C125.454 172.399 126.128 172.525 126.183 173.029L126.601 176.851L137.447 176.527C138.229 176.504 138.697 175.647 138.293 174.976L130.132 161.415C129.839 160.928 129.998 160.297 130.487 160.007L145.787 150.924C146.285 150.629 146.927 150.804 147.206 151.31L154.988 165.434Z" fill="white"/>
<path d="M93.8273 197.116C92.2842 197.153 90.851 196.32 90.1205 194.96L75.8136 168.33C75.1878 167.165 75.1632 165.769 75.7475 164.583L81.4486 153.01L78.227 150.712C77.8174 150.419 78.0312 149.774 78.5342 149.783L93.987 150.087C94.3437 150.094 94.6711 150.286 94.8509 150.594L102.608 163.886C102.863 164.324 102.396 164.826 101.941 164.604L98.4865 162.916L91.861 175.083C91.4939 175.757 91.972 176.58 92.7394 176.596L110.197 176.945C110.734 176.956 111.171 177.379 111.199 177.915L112.118 195.615C112.148 196.19 111.697 196.677 111.121 196.691L93.8273 197.116Z" fill="white"/>
<path d="M75.1484 222.027H80.1172C81.4609 222.027 82.4922 222.133 83.2109 222.344C83.9375 222.555 84.4805 222.859 84.8398 223.258C85.207 223.656 85.4531 224.141 85.5781 224.711C85.7109 225.273 85.7773 226.148 85.7773 227.336V228.988C85.7773 230.199 85.6523 231.082 85.4023 231.637C85.1523 232.191 84.6914 232.617 84.0195 232.914C83.3555 233.211 82.4844 233.359 81.4062 233.359H80.082V241H75.1484V222.027ZM80.082 225.273V230.102C80.2227 230.109 80.3438 230.113 80.4453 230.113C80.8984 230.113 81.2109 230.004 81.3828 229.785C81.5625 229.559 81.6523 229.094 81.6523 228.391V226.832C81.6523 226.184 81.5508 225.762 81.3477 225.566C81.1445 225.371 80.7227 225.273 80.082 225.273ZM92.1289 222.027V237.203H95.1289V241H87.1953V222.027H92.1289ZM105.465 222.027L108.289 241H103.238L102.992 237.59H101.223L100.93 241H95.8203L98.3281 222.027H105.465ZM102.852 234.227C102.602 232.078 102.352 229.426 102.102 226.27C101.602 229.895 101.289 232.547 101.164 234.227H102.852ZM119.586 227.77H115.004V226.363C115.004 225.707 114.945 225.289 114.828 225.109C114.711 224.93 114.516 224.84 114.242 224.84C113.945 224.84 113.719 224.961 113.562 225.203C113.414 225.445 113.34 225.812 113.34 226.305C113.34 226.938 113.426 227.414 113.598 227.734C113.762 228.055 114.227 228.441 114.992 228.895C117.188 230.199 118.57 231.27 119.141 232.105C119.711 232.941 119.996 234.289 119.996 236.148C119.996 237.5 119.836 238.496 119.516 239.137C119.203 239.777 118.594 240.316 117.688 240.754C116.781 241.184 115.727 241.398 114.523 241.398C113.203 241.398 112.074 241.148 111.137 240.648C110.207 240.148 109.598 239.512 109.309 238.738C109.02 237.965 108.875 236.867 108.875 235.445V234.203H113.457V236.512C113.457 237.223 113.52 237.68 113.645 237.883C113.777 238.086 114.008 238.188 114.336 238.188C114.664 238.188 114.906 238.059 115.062 237.801C115.227 237.543 115.309 237.16 115.309 236.652C115.309 235.535 115.156 234.805 114.852 234.461C114.539 234.117 113.77 233.543 112.543 232.738C111.316 231.926 110.504 231.336 110.105 230.969C109.707 230.602 109.375 230.094 109.109 229.445C108.852 228.797 108.723 227.969 108.723 226.961C108.723 225.508 108.906 224.445 109.273 223.773C109.648 223.102 110.25 222.578 111.078 222.203C111.906 221.82 112.906 221.629 114.078 221.629C115.359 221.629 116.449 221.836 117.348 222.25C118.254 222.664 118.852 223.188 119.141 223.82C119.438 224.445 119.586 225.512 119.586 227.02V227.77ZM131.492 222.027V225.824H128.562V241H123.629V225.824H120.711V222.027H131.492ZM137.551 222.027V241H132.617V222.027H137.551ZM151.051 230.301H146.117V226.996C146.117 226.035 146.062 225.438 145.953 225.203C145.852 224.961 145.621 224.84 145.262 224.84C144.855 224.84 144.598 224.984 144.488 225.273C144.379 225.562 144.324 226.188 144.324 227.148V235.961C144.324 236.883 144.379 237.484 144.488 237.766C144.598 238.047 144.844 238.188 145.227 238.188C145.594 238.188 145.832 238.047 145.941 237.766C146.059 237.484 146.117 236.824 146.117 235.785V233.406H151.051V234.145C151.051 236.105 150.91 237.496 150.629 238.316C150.355 239.137 149.742 239.855 148.789 240.473C147.844 241.09 146.676 241.398 145.285 241.398C143.84 241.398 142.648 241.137 141.711 240.613C140.773 240.09 140.152 239.367 139.848 238.445C139.543 237.516 139.391 236.121 139.391 234.262V228.719C139.391 227.352 139.438 226.328 139.531 225.648C139.625 224.961 139.902 224.301 140.363 223.668C140.832 223.035 141.477 222.539 142.297 222.18C143.125 221.812 144.074 221.629 145.145 221.629C146.598 221.629 147.797 221.91 148.742 222.473C149.688 223.035 150.309 223.738 150.605 224.582C150.902 225.418 151.051 226.723 151.051 228.496V230.301Z" fill="white"/>
<defs>
<filter id="filter0_dif_194_3866" x="4" y="66.5" width="220" height="270.5" filterUnits="userSpaceOnUse" color-interpolation-filters="sRGB">
<feFlood flood-opacity="0" result="BackgroundImageFix"/>
<feColorMatrix in="SourceAlpha" type="matrix" values="0 0 0 0 0 0 0 0 0 0 0 0 0 0 0 0 0 0 127 0" result="hardAlpha"/>
<feOffset dy="4"/>
<feGaussianBlur stdDeviation="2"/>
<feComposite in2="hardAlpha" operator="out"/>
<feColorMatrix type="matrix" values="0 0 0 0 0 0 0 0 0 0 0 0 0 0 0 0 0 0 0.25 0"/>
<feBlend mode="normal" in2="BackgroundImageFix" result="effect1_dropShadow_194_3866"/>
<feBlend mode="normal" in="SourceGraphic" in2="effect1_dropShadow_194_3866" result="shape"/>
<feColorMatrix in="SourceAlpha" type="matrix" values="0 0 0 0 0 0 0 0 0 0 0 0 0 0 0 0 0 0 127 0" result="hardAlpha"/>
<feOffset dy="8"/>
<feGaussianBlur stdDeviation="6"/>
<feComposite in2="hardAlpha" operator="arithmetic" k2="-1" k3="1"/>
<feColorMatrix type="matrix" values="0 0 0 0 0 0 0 0 0 0 0 0 0 0 0 0 0 0 0.25 0"/>
<feBlend mode="normal" in2="shape" result="effect2_innerShadow_194_3866"/>
<feGaussianBlur stdDeviation="0.5" result="effect3_foregroundBlur_194_3866"/>
</filter>
<filter id="filter1_df_194_3866" x="11" y="65.5" width="112.5" height="271" filterUnits="userSpaceOnUse" color-interpolation-filters="sRGB">
<feFlood flood-opacity="0" result="BackgroundImageFix"/>
<feColorMatrix in="SourceAlpha" type="matrix" values="0 0 0 0 0 0 0 0 0 0 0 0 0 0 0 0 0 0 127 0" result="hardAlpha"/>
<feOffset dx="4" dy="4"/>
<feGaussianBlur stdDeviation="4"/>
<feComposite in2="hardAlpha" operator="out"/>
<feColorMatrix type="matrix" values="0 0 0 0 0 0 0 0 0 0 0 0 0 0 0 0 0 0 0.15 0"/>
<feBlend mode="normal" in2="BackgroundImageFix" result="effect1_dropShadow_194_3866"/>
<feBlend mode="normal" in="SourceGraphic" in2="effect1_dropShadow_194_3866" result="shape"/>
<feGaussianBlur stdDeviation="2" result="effect2_foregroundBlur_194_3866"/>
</filter>
<filter id="filter2_df_194_3866" x="135" y="64.5" width="92" height="130.5" filterUnits="userSpaceOnUse" color-interpolation-filters="sRGB">
<feFlood flood-opacity="0" result="BackgroundImageFix"/>
<feColorMatrix in="SourceAlpha" type="matrix" values="0 0 0 0 0 0 0 0 0 0 0 0 0 0 0 0 0 0 127 0" result="hardAlpha"/>
<feOffset dy="4"/>
<feGaussianBlur stdDeviation="4"/>
<feComposite in2="hardAlpha" operator="out"/>
<feColorMatrix type="matrix" values="0 0 0 0 0 0 0 0 0 0 0 0 0 0 0 0 0 0 0.25 0"/>
<feBlend mode="normal" in2="BackgroundImageFix" result="effect1_dropShadow_194_3866"/>
<feBlend mode="normal" in="SourceGraphic" in2="effect1_dropShadow_194_3866" result="shape"/>
<feGaussianBlur stdDeviation="2" result="effect2_foregroundBlur_194_3866"/>
</filter>
<filter id="filter3_f_194_3866" x="0" y="0" width="228" height="69.5" filterUnits="userSpaceOnUse" color-interpolation-filters="sRGB">
<feFlood flood-opacity="0" result="BackgroundImageFix"/>
<feBlend mode="normal" in="SourceGraphic" in2="BackgroundImageFix" result="shape"/>
<feGaussianBlur stdDeviation="0.5" result="effect1_foregroundBlur_194_3866"/>
</filter>
<filter id="filter4_df_194_3866" x="61.5" y="2.5" width="104.5" height="26" filterUnits="userSpaceOnUse" color-interpolation-filters="sRGB">
<feFlood flood-opacity="0" result="BackgroundImageFix"/>
<feColorMatrix in="SourceAlpha" type="matrix" values="0 0 0 0 0 0 0 0 0 0 0 0 0 0 0 0 0 0 127 0" result="hardAlpha"/>
<feOffset dy="2"/>
<feGaussianBlur stdDeviation="2"/>
<feComposite in2="hardAlpha" operator="out"/>
<feColorMatrix type="matrix" values="0 0 0 0 0 0 0 0 0 0 0 0 0 0 0 0 0 0 0.4 0"/>
<feBlend mode="normal" in2="BackgroundImageFix" result="effect1_dropShadow_194_3866"/>
<feBlend mode="normal" in="SourceGraphic" in2="effect1_dropShadow_194_3866" result="shape"/>
<feGaussianBlur stdDeviation="1" result="effect2_foregroundBlur_194_3866"/>
</filter>
<filter id="filter5_df_194_3866" x="7.5" y="24.5" width="218.5" height="31.5" filterUnits="userSpaceOnUse" color-interpolation-filters="sRGB">
<feFlood flood-opacity="0" result="BackgroundImageFix"/>
<feColorMatrix in="SourceAlpha" type="matrix" values="0 0 0 0 0 0 0 0 0 0 0 0 0 0 0 0 0 0 127 0" result="hardAlpha"/>
<feOffset dy="4"/>
<feGaussianBlur stdDeviation="4"/>
<feComposite in2="hardAlpha" operator="out"/>
<feColorMatrix type="matrix" values="0 0 0 0 0 0 0 0 0 0 0 0 0 0 0 0 0 0 0.25 0"/>
<feBlend mode="normal" in2="BackgroundImageFix" result="effect1_dropShadow_194_3866"/>
<feBlend mode="normal" in="SourceGraphic" in2="effect1_dropShadow_194_3866" result="shape"/>
<feGaussianBlur stdDeviation="2" result="effect2_foregroundBlur_194_3866"/>
</filter>
<filter id="filter6_df_194_3866" x="167.5" y="22.5" width="52.5" height="31" filterUnits="userSpaceOnUse" color-interpolation-filters="sRGB">
<feFlood flood-opacity="0" result="BackgroundImageFix"/>
<feColorMatrix in="SourceAlpha" type="matrix" values="0 0 0 0 0 0 0 0 0 0 0 0 0 0 0 0 0 0 127 0" result="hardAlpha"/>
<feOffset dy="2"/>
<feGaussianBlur stdDeviation="2"/>
<feComposite in2="hardAlpha" operator="out"/>
<feColorMatrix type="matrix" values="0 0 0 0 0 0 0 0 0 0 0 0 0 0 0 0 0 0 0.3 0"/>
<feBlend mode="normal" in2="BackgroundImageFix" result="effect1_dropShadow_194_3866"/>
<feBlend mode="normal" in="SourceGraphic" in2="effect1_dropShadow_194_3866" result="shape"/>
<feGaussianBlur stdDeviation="0.5" result="effect2_foregroundBlur_194_3866"/>
</filter>
</defs>
</svg>
